<svg width="320" height="512" viewBox="0 0 320 512" fill="none" xmlns="http://www.w3.org/2000/svg">
<path d="M317.951 200.174C315.123 195.127 309.787 192 303.998 192H193.39L207.945 17.332C208.554 10.02 204.109 3.23202 197.164 0.865023C190.25 -1.51798 182.555 1.14702 178.57 7.31102L2.57163 279.308C-0.616371 284.23 -0.858371 290.502 1.94663 295.65C4.75163 300.798 10.1416 304 16.0006 304H126.719L112.047 494.773C111.477 502.148 116.039 508.953 123.078 511.227C124.703 511.75 126.359 512.001 128 512.001C133.453 512.001 138.687 509.197 141.656 504.345L317.654 216.347C320.67 211.41 320.787 205.221 317.951 200.174V200.174ZM149.055 430.859L159.953 289.229C160.297 284.784 158.766 280.4 155.742 277.126C152.711 273.861 148.453 272 144 272H45.4146L170.75 78.293L160.055 206.675C159.688 211.136 161.196 215.54 164.227 218.837C167.258 222.127 171.523 224 176 224H275.468L149.055 430.859V430.859Z" fill="#78D3A7"/>
</svg>
