<svg width="512" height="511" viewBox="0 0 512 511" fill="none" xmlns="http://www.w3.org/2000/svg">
<g clip-path="url(#clip0)">
<path d="M509.418 217.934L423.89 106.831C420.725 102.722 414.951 101.708 410.573 104.492L355.353 139.611H283.333C282.402 139.611 281.474 139.809 280.577 140.071L224.737 156.145L166.796 140.297L110.496 104.492C106.192 101.755 100.523 102.683 97.3224 106.652L2.7223 223.829C-0.677294 228.039 -0.115893 234.187 3.98546 237.716L53.5681 280.386L98.0514 340.331C85.0417 354.191 85.2951 376.05 98.8311 389.59C104.831 395.586 112.461 398.974 120.309 399.762C120.036 401.54 119.895 403.345 119.895 405.177C119.895 414.635 123.58 423.528 130.266 430.214C136.956 436.904 145.848 440.588 155.307 440.588C155.435 440.588 155.56 440.58 155.685 440.576C155.681 440.818 155.669 441.056 155.669 441.298C155.669 450.756 159.353 459.648 166.039 466.339C172.729 473.025 181.622 476.709 191.08 476.709C192.948 476.709 194.796 476.557 196.609 476.276C197.377 484.151 200.772 491.816 206.792 497.835C213.692 504.74 222.76 508.19 231.829 508.19C240.897 508.19 249.965 504.74 256.87 497.835L262.285 492.42L264.558 494.253C271.404 500.884 280.292 504.198 289.181 504.198C298.249 504.198 307.318 500.748 314.218 493.843C321.263 486.798 324.713 477.5 324.569 468.249C333.817 468.389 343.119 464.943 350.164 457.902C357.201 450.861 360.651 441.571 360.514 432.323C370.148 432.475 379.286 428.775 386.105 421.957C393.15 414.912 396.6 405.614 396.456 396.362C405.711 396.503 415.005 393.056 422.05 386.011C434.074 373.988 435.621 355.403 426.705 341.684L459.185 273.661L508.015 231.641C512.05 228.168 512.666 222.148 509.418 217.934V217.934ZM107.291 126.203L147.774 151.946L59.7085 259.236L24.4181 228.862L107.291 126.203ZM113.003 353.68L125.221 341.462C125.591 341.091 125.981 340.741 126.379 340.413C128.769 338.464 131.661 337.302 134.726 337.025C134.811 337.017 134.901 337.017 134.987 337.013C135.424 336.978 135.86 336.955 136.301 336.959C140.488 337.017 144.379 338.729 147.264 341.774C152.924 347.758 152.62 357.536 146.585 363.571L134.737 375.419C128.745 381.411 118.995 381.411 113.003 375.419C107.01 369.423 107.01 359.672 113.003 353.68ZM144.437 416.042C141.533 413.142 139.934 409.282 139.934 405.177C139.934 401.072 141.533 397.212 144.437 394.308L168.129 370.616C172.667 366.078 179.802 364.834 185.603 367.598C191.583 370.448 194.948 376.939 194.071 383.469C193.603 386.955 191.981 390.237 189.494 392.729L166.176 416.042C163.271 418.947 159.412 420.545 155.307 420.545C151.201 420.545 147.342 418.947 144.437 416.042ZM180.211 452.163C177.306 449.263 175.708 445.403 175.708 441.298C175.708 437.192 177.306 433.333 180.211 430.428L203.899 406.736C208.753 401.886 216.538 400.842 222.48 404.3C227.907 407.458 230.749 413.656 229.817 419.832C229.306 423.228 227.692 426.421 225.263 428.849L201.95 452.163C199.045 455.068 195.186 456.666 191.08 456.666C186.975 456.666 183.115 455.068 180.211 452.163ZM220.959 483.664C214.967 477.672 214.967 467.921 220.959 461.929L233.178 449.711C233.548 449.341 233.934 448.994 234.332 448.666C234.343 448.658 234.351 448.65 234.359 448.643C236.347 447.029 238.682 445.949 241.174 445.477C241.232 445.469 241.291 445.461 241.349 445.454C241.778 445.376 242.215 445.313 242.651 445.274C242.827 445.259 243.002 445.259 243.181 445.247C243.54 445.227 243.895 445.204 244.257 445.208C248.441 445.266 252.335 446.974 255.22 450.023C255.575 450.397 255.907 450.787 256.211 451.188C260.819 457.212 260.199 466.159 254.48 471.882L242.694 483.668C236.702 489.66 226.952 489.656 220.959 483.664V483.664ZM407.879 371.84C401.887 377.836 392.136 377.832 386.144 371.84C385.926 371.622 385.696 371.419 385.462 371.228L321.033 306.121C317.138 302.187 310.795 302.156 306.862 306.051C302.928 309.941 302.897 316.284 306.787 320.218L371.914 386.023C371.922 386.031 371.93 386.039 371.937 386.046C377.93 392.039 377.93 401.793 371.937 407.785C369.033 410.69 365.173 412.288 361.068 412.288C356.959 412.288 353.099 410.69 350.199 407.785L306.632 363.766C302.741 359.832 296.398 359.801 292.464 363.692C288.53 367.586 288.499 373.929 292.39 377.863L335.29 421.208C335.509 421.481 335.743 421.742 335.992 421.992C341.984 427.984 341.984 437.738 335.992 443.73C329.996 449.723 320.242 449.719 314.249 443.727L290.472 419.699C286.577 415.766 280.234 415.731 276.3 419.625C272.367 423.516 272.335 429.859 276.226 433.793L299.341 457.146C299.559 457.418 299.793 457.684 300.047 457.933C306.039 463.925 306.039 473.68 300.047 479.672C294.055 485.668 284.304 485.664 278.312 479.672C277.622 478.982 276.811 478.452 276.039 477.859C275.384 477.36 275.213 477.013 275.54 476.218C275.871 475.411 276.367 474.682 276.698 473.871C277.064 472.966 277.361 472.034 277.649 471.099C279.185 466.147 279.637 460.822 278.947 455.684C277.622 445.824 272.199 436.927 263.981 431.298C259.54 428.261 254.402 426.268 249.076 425.52C251.657 414.136 248.558 401.793 240.495 393.274C233.86 386.265 224.897 382.331 215.256 382.198C214.905 382.195 214.554 382.195 214.199 382.198C214.414 372.998 211.069 363.855 204.725 357.154C198.086 350.144 189.123 346.21 179.486 346.078C176.62 346.039 173.728 346.343 170.936 346.986C169.743 338.686 165.56 331.006 159.225 325.512C152.928 320.062 145.01 317.037 136.578 316.92C127.7 316.791 118.979 320.066 112.387 326.019L73.6538 273.828L166.316 160.94L195.848 169.018L157.279 237.076C152.616 245.306 151.439 254.858 153.962 263.973C156.484 273.092 162.402 280.678 170.632 285.341C171.147 285.633 171.665 285.91 172.191 286.175C172.23 286.195 172.269 286.214 172.312 286.234C173.696 286.924 175.119 287.517 176.562 288.016C183.279 290.343 190.534 290.596 197.533 288.663C206.647 286.14 214.234 280.218 218.897 271.992L243.961 227.762L288.713 230.936L407.883 350.101C413.871 356.097 413.871 365.848 407.879 371.84V371.84ZM412.031 325.91L300.238 214.121C300.027 213.907 299.805 213.704 299.575 213.513C297.965 212.172 295.969 211.361 293.864 211.213L239.068 207.326C235.279 207.065 231.513 209.08 229.642 212.382L201.462 262.113C199.439 265.684 196.145 268.253 192.188 269.349C188.234 270.444 184.086 269.93 180.511 267.906C176.94 265.883 174.371 262.589 173.275 258.632C172.18 254.675 172.69 250.526 174.718 246.955L212.336 180.566L227.579 176.18C227.681 176.149 227.778 176.11 227.879 176.078L284.772 159.65H353.512L439.329 268.741L412.031 325.91ZM452.456 253.014L373.095 152.075L413.598 126.316L487.754 222.64L452.456 253.014Z" fill="#78D3A7"/>
<path d="M310.078 120.796C312.643 120.796 315.208 119.817 317.165 117.86L385.61 49.416C389.524 45.5018 389.524 39.1587 385.61 35.2445C381.695 31.3303 375.352 31.3303 371.438 35.2445L302.994 103.689C299.08 107.603 299.08 113.946 302.994 117.86C304.951 119.817 307.516 120.796 310.078 120.796Z" fill="#78D3A7"/>
<path d="M194.834 117.86C196.792 119.817 199.357 120.796 201.922 120.796C204.484 120.796 207.049 119.817 209.006 117.86C212.92 113.946 212.92 107.603 209.006 103.689L140.562 35.2445C136.648 31.3303 130.304 31.3303 126.39 35.2445C122.476 39.1587 122.476 45.5018 126.39 49.416L194.834 117.86Z" fill="#78D3A7"/>
<path d="M256 120.796C261.532 120.796 266.019 116.308 266.019 110.776V54.1332C266.019 48.6011 261.532 44.1138 256 44.1138C250.468 44.1138 245.98 48.6011 245.98 54.1332V110.776C245.98 116.308 250.468 120.796 256 120.796Z" fill="#78D3A7"/>
<path d="M246.752 17.8176C248.343 21.6733 252.308 24.2035 256.491 23.9852C260.624 23.7708 264.253 20.9794 265.532 17.0457C266.815 13.0808 265.419 8.56226 262.097 6.03595C258.709 3.45507 253.984 3.31082 250.441 5.65389C246.487 8.26597 244.955 13.4667 246.752 17.8176Z" fill="#78D3A7"/>
</g>
<defs>
<clipPath id="clip0">
<rect width="511" height="511" fill="white" transform="translate(0.5 0.000976562)"/>
</clipPath>
</defs>
</svg>
