<svg width="30" height="30" viewBox="0 0 30 30" fill="none" xmlns="http://www.w3.org/2000/svg">
<path d="M20.0013 15C20.0013 12.2384 17.7626 10 15.0013 10C12.2397 10 10.0013 12.2384 10.0013 15C10.0013 17.7613 12.2397 20 15.0013 20C17.7626 20 20.0013 17.7613 20.0013 15Z" fill="#96DDBB"/>
<path fill-rule="evenodd" clip-rule="evenodd" d="M29.9998 8C29.9998 3.58172 26.418 0 21.9998 0H8.06629C3.65742 0 0.0796079 3.56705 0.0663298 7.97591L0.0241661 21.9759C0.0108313 26.4036 3.59644 30 8.02413 30H21.9998C26.418 30 29.9998 26.4183 29.9998 22V8ZM21.2082 6.99311C21.2082 5.99901 22.0144 5.19371 23.0082 5.19371C24.0019 5.19371 24.8082 5.99937 24.8082 6.99311C24.8082 7.98685 24.0019 8.79309 23.0082 8.79309C22.0144 8.79309 21.2082 7.98685 21.2082 6.99311ZM7.29814 15C7.29814 10.746 10.7471 7.29697 15.0009 7.29686C19.255 7.29686 22.7031 10.7459 22.7031 15C22.7031 19.2541 19.2554 22.7016 15.0013 22.7016C10.7472 22.7016 7.29814 19.2541 7.29814 15ZM20.0013 15C20.0013 12.2384 17.7626 10 15.0013 10C12.2397 10 10.0013 12.2384 10.0013 15C10.0013 17.7613 12.2397 20 15.0013 20C17.7626 20 20.0013 17.7613 20.0013 15Z" fill="#96DDBB"/>
</svg>
