<svg width="512" height="512" viewBox="0 0 512 512" fill="none" xmlns="http://www.w3.org/2000/svg">
<g clip-path="url(#clip0)">
<path d="M400 512.001H112C85.5467 512.001 64 490.476 64 464.001V240.001C64 213.526 85.5467 192.001 112 192.001H400C426.453 192.001 448 213.526 448 240.001V464.001C448 490.476 426.453 512.001 400 512.001ZM112 224.001C103.189 224.001 96 231.169 96 240.001V464.001C96 472.833 103.189 480.001 112 480.001H400C408.811 480.001 416 472.833 416 464.001V240.001C416 231.169 408.811 224.001 400 224.001H112Z" fill="#78D3A7"/>
<path d="M368 224.001C359.168 224.001 352 216.833 352 208.001V128.001C352 75.073 308.928 32.001 256 32.001C203.072 32.001 160 75.073 160 128.001V208.001C160 216.833 152.832 224.001 144 224.001C135.168 224.001 128 216.833 128 208.001V128.001C128 57.409 185.408 0.000976562 256 0.000976562C326.592 0.000976562 384 57.409 384 128.001V208.001C384 216.833 376.832 224.001 368 224.001Z" fill="#78D3A7"/>
<path d="M256 362.668C232.469 362.668 213.333 343.532 213.333 320.001C213.333 296.47 232.469 277.334 256 277.334C279.531 277.334 298.667 296.47 298.667 320.001C298.667 343.532 279.531 362.668 256 362.668ZM256 309.334C250.133 309.334 245.333 314.113 245.333 320.001C245.333 325.889 250.133 330.668 256 330.668C261.867 330.668 266.667 325.889 266.667 320.001C266.667 314.113 261.867 309.334 256 309.334Z" fill="#78D3A7"/>
<path d="M256 426.668C247.168 426.668 240 419.5 240 410.668V352.001C240 343.169 247.168 336.001 256 336.001C264.832 336.001 272 343.169 272 352.001V410.668C272 419.5 264.832 426.668 256 426.668Z" fill="#78D3A7"/>
</g>
<defs>
<clipPath id="clip0">
<rect width="512" height="512" fill="white" transform="translate(0 0.000976562)"/>
</clipPath>
</defs>
</svg>
