<svg width="512" height="512" viewBox="0 0 512 512" fill="none" xmlns="http://www.w3.org/2000/svg">
<path d="M283.786 498.163C274.585 498.152 265.764 494.492 259.258 487.986C252.752 481.48 249.092 472.659 249.081 463.458V319.71C249.081 317.875 249.81 316.116 251.108 314.818C252.405 313.52 254.165 312.792 256 312.792C257.835 312.792 259.595 313.52 260.892 314.818C262.19 316.116 262.919 317.875 262.919 319.71V463.458C262.919 468.993 265.118 474.302 269.032 478.216C272.946 482.13 278.254 484.329 283.79 484.329C289.325 484.329 294.634 482.13 298.548 478.216C302.462 474.302 304.661 468.993 304.661 463.458V211.72C304.661 209.885 305.39 208.125 306.687 206.828C307.985 205.53 309.745 204.801 311.58 204.801C313.415 204.801 315.175 205.53 316.472 206.828C317.77 208.125 318.499 209.885 318.499 211.72V463.458C318.488 472.66 314.827 481.482 308.319 487.989C301.811 494.495 292.989 498.154 283.786 498.163Z" fill="#78D3A7"/>
<path d="M228.214 498.163C219.011 498.154 210.189 494.495 203.681 487.989C197.173 481.482 193.512 472.66 193.501 463.458V211.72C193.501 209.885 194.23 208.125 195.528 206.828C196.826 205.53 198.585 204.801 200.42 204.801C202.255 204.801 204.015 205.53 205.313 206.828C206.61 208.125 207.339 209.885 207.339 211.72V463.458C207.339 468.993 209.538 474.302 213.452 478.216C217.366 482.13 222.675 484.329 228.21 484.329C233.746 484.329 239.054 482.13 242.968 478.216C246.882 474.302 249.081 468.993 249.081 463.458V319.71C249.081 317.875 249.81 316.116 251.108 314.818C252.405 313.52 254.165 312.792 256 312.792C257.835 312.792 259.595 313.52 260.892 314.818C262.19 316.116 262.919 317.875 262.919 319.71V463.458C262.908 472.659 259.248 481.48 252.742 487.986C246.236 494.492 237.415 498.152 228.214 498.163Z" fill="#78D3A7"/>
<path d="M330.953 343.235C323.98 343.235 317.292 340.465 312.361 335.534C307.431 330.603 304.661 323.916 304.661 316.943V211.72C304.661 209.885 305.39 208.125 306.687 206.828C307.985 205.53 309.745 204.801 311.58 204.801C313.415 204.801 315.174 205.53 316.472 206.828C317.77 208.125 318.499 209.885 318.499 211.72V316.888C318.499 320.191 319.811 323.358 322.146 325.694C324.482 328.029 327.65 329.342 330.953 329.342C334.256 329.342 337.423 328.029 339.759 325.694C342.094 323.358 343.407 320.191 343.407 316.888V188.507C343.396 179.133 339.667 170.147 333.039 163.519C326.411 156.891 317.424 153.162 308.051 153.151H203.949C194.575 153.162 185.589 156.891 178.961 163.519C172.333 170.147 168.604 179.133 168.593 188.507V316.943C168.593 320.246 169.905 323.414 172.241 325.749C174.576 328.085 177.744 329.397 181.047 329.397C184.35 329.397 187.518 328.085 189.854 325.749C192.189 323.414 193.501 320.246 193.501 316.943V211.72C193.501 209.885 194.23 208.125 195.528 206.828C196.825 205.53 198.585 204.801 200.42 204.801C202.255 204.801 204.015 205.53 205.313 206.828C206.61 208.125 207.339 209.885 207.339 211.72V316.888C207.339 320.34 206.659 323.759 205.338 326.949C204.017 330.139 202.08 333.037 199.638 335.479C197.197 337.92 194.299 339.857 191.109 341.178C187.919 342.499 184.5 343.179 181.047 343.179C177.595 343.179 174.176 342.499 170.986 341.178C167.796 339.857 164.898 337.92 162.456 335.479C160.015 333.037 158.078 330.139 156.757 326.949C155.435 323.759 154.755 320.34 154.755 316.888V188.507C154.77 175.465 159.958 162.96 169.18 153.738C178.402 144.516 190.906 139.328 203.949 139.313H308.051C321.093 139.328 333.597 144.516 342.82 153.738C352.042 162.96 357.23 175.465 357.244 188.507V316.943C357.235 323.913 354.462 330.595 349.534 335.524C344.605 340.453 337.923 343.226 330.953 343.235Z" fill="#78D3A7"/>
<path d="M256 122.66C245.239 122.66 234.719 119.469 225.771 113.49C216.823 107.511 209.85 99.0134 205.731 89.0712C201.613 79.129 200.536 68.1889 202.635 57.6343C204.735 47.0798 209.917 37.3848 217.526 29.7753C225.135 22.1659 234.83 16.9838 245.385 14.8844C255.94 12.7849 266.88 13.8624 276.822 17.9806C286.764 22.0988 295.262 29.0727 301.241 38.0205C307.219 46.9682 310.41 57.4879 310.41 68.2493C310.394 82.6747 304.656 96.5047 294.456 106.705C284.255 116.905 270.425 122.643 256 122.66ZM256 27.6767C247.976 27.6767 240.131 30.0563 233.459 34.5144C226.787 38.9726 221.587 45.3092 218.516 52.7228C215.445 60.1365 214.642 68.2943 216.207 76.1646C217.773 84.0349 221.637 91.2642 227.311 96.9384C232.985 102.613 240.214 106.477 248.085 108.042C255.955 109.608 264.113 108.804 271.526 105.733C278.94 102.663 285.277 97.4623 289.735 90.7902C294.193 84.118 296.573 76.2738 296.573 68.2493C296.562 57.4921 292.283 47.1787 284.677 39.5723C277.071 31.9658 266.757 27.6877 256 27.6767Z" fill="#78D3A7"/>
</svg>
