<svg width="64" height="45" viewBox="0 0 64 45" fill="none" xmlns="http://www.w3.org/2000/svg">
<g clip-path="url(#clip0)">
<path d="M4.45544 13.7594C4.68221 13.8119 4.84282 14.0138 4.84282 14.2466V20.4594V24.0412V42.5744C4.84282 43.5898 5.66598 44.4124 6.68084 44.4124C7.69612 44.4124 8.51923 43.5897 8.51923 42.5744V25.5029C8.51923 25.2267 8.74309 25.0029 9.01923 25.0029H9.89578C10.1719 25.0029 10.3958 25.2267 10.3958 25.5029V42.5744C10.3958 43.5898 11.2189 44.4124 12.2338 44.4124C13.2491 44.4124 14.0722 43.5897 14.0722 42.5744V24.0412V20.4594V14.2545C14.0722 14.0217 14.233 13.8196 14.4599 13.7673C14.6868 13.715 14.9198 13.8263 15.0217 14.0357C15.1417 14.282 15.2615 14.562 15.3789 14.8856L15.3791 14.8863C15.9387 16.4371 16.3901 18.9235 16.3884 22.7412L4.45544 13.7594ZM4.45544 13.7594C4.22866 13.707 3.9957 13.818 3.89355 14.0272M4.45544 13.7594L3.89355 14.0272M3.89355 14.0272C3.19106 15.4654 2.51957 18.1236 2.52583 22.7416M3.89355 14.0272L2.52583 22.7416M16.2809 26.2166L16.2809 26.2166C16.2483 26.775 16.6744 27.2541 17.2329 27.2869C17.2544 27.2881 17.2746 27.2887 17.2937 27.2887C17.8257 27.2887 18.2721 26.8728 18.3035 26.3347M16.2809 26.2166L0.5 22.7412C0.502651 18.4914 1.02065 15.7222 1.7655 13.8387L1.76597 13.8376C2.49796 11.9728 3.52014 10.9781 4.40399 10.5399L4.40399 10.5399L4.4071 10.5384C4.79192 10.3442 5.14094 10.2546 5.41481 10.2152C5.44401 10.211 5.47279 10.2043 5.5008 10.195C5.59813 10.1628 5.69964 10.1453 5.80429 10.1453H13.1105C13.215 10.1453 13.3165 10.1628 13.4142 10.1952C13.4422 10.2045 13.471 10.2112 13.5002 10.2154C13.7739 10.2548 14.1229 10.3444 14.5073 10.5384L14.5093 10.5393C15.0955 10.8319 15.7573 11.3738 16.334 12.2487C17.499 14.03 18.4067 17.0743 18.4144 22.7417C18.4141 23.8384 18.3792 25.0328 18.3035 26.3347M16.2809 26.2166C16.3548 24.9503 16.3884 23.7949 16.3884 22.7415L16.2809 26.2166ZM18.3035 26.3347L18.8027 26.3637L18.3035 26.3346C18.3035 26.3346 18.3035 26.3347 18.3035 26.3347ZM0.611664 26.3348L0.611667 26.3349C0.643185 26.8729 1.08951 27.2887 1.62165 27.2887C1.64098 27.2887 1.66142 27.2881 1.68359 27.2868L1.71167 27.786L1.68247 27.2869C2.24051 27.2542 2.66674 26.7751 2.6341 26.2163L0.611664 26.3348ZM0.611664 26.3348C0.53522 25.0324 0.500006 23.8381 0.5 22.7415L0.611664 26.3348ZM2.52583 22.7416C2.52583 23.7947 2.55984 24.9501 2.6341 26.2163L2.52583 22.7416Z" stroke="#78D3A7" stroke-linejoin="round"/>
<path d="M10.3097 0.657131C12.329 1.12737 13.5847 3.14556 13.1145 5.16487C12.6443 7.18419 10.6261 8.43996 8.60675 7.96971C6.58743 7.49947 5.33166 5.48128 5.80191 3.46197C6.27215 1.44266 8.29034 0.186887 10.3097 0.657131Z" stroke="#78D3A7" stroke-linejoin="round"/>
</g>
<g clip-path="url(#clip1)">
<path d="M25.0732 27.4818C25.2946 27.3357 25.4744 27.1333 25.5936 26.8963L25.1469 26.6718C25.2239 26.5185 25.2631 26.3435 25.2523 26.1584C25.229 25.7622 25.2097 25.3768 25.1942 25.0021L25.6938 24.9813C25.6774 24.5865 25.6652 24.2036 25.657 23.8325L25.1571 23.8436C25.1483 23.4439 25.144 23.0574 25.144 22.6837M25.0732 27.4818L39.0066 22.6834C39.0067 22.3835 39.0041 22.0919 38.9988 21.8084L38.4989 21.8178C38.4933 21.5207 38.4849 21.2328 38.4737 20.9539L38.9733 20.9339C38.9483 20.3078 38.9098 19.7249 38.86 19.1829L38.3621 19.2287C38.3345 18.929 38.3035 18.6424 38.2694 18.3684L38.7656 18.3067C38.6852 17.6601 38.5877 17.0796 38.4778 16.5598L37.9887 16.6632C37.9248 16.3612 37.8569 16.0812 37.786 15.8222L38.2683 15.6902C38.1822 15.376 38.0914 15.0893 37.9973 14.8284L37.997 14.8277C37.9611 14.7285 37.9249 14.6334 37.8885 14.5421L37.6904 14.621V14.2934L37.7698 14.2585C37.7266 14.1602 37.6832 14.0668 37.6399 13.9778C37.538 13.7684 37.305 13.6572 37.0781 13.7095C36.8511 13.7618 36.6904 13.9638 36.6904 14.1967V15.2308H37.0791C37.1166 15.3372 37.1537 15.4489 37.1904 15.5663V16.265H36.6904V18.3332H37.1904V19.3674H36.6904V20.4015V21.5955H37.1904V22.7894H36.6904V23.9833V25.013H37.1904V26.0426H36.6904V28.1018H37.1904V29.1314H36.6904V31.1907H37.1904V32.2203H36.6904V34.2796H37.1904V35.3092H36.6904V37.3684H37.1904V38.398H36.6904V40.4573H37.1904V41.4869H36.6904V42.5165C36.6904 42.8523 36.6008 43.1655 36.4447 43.4354L36.8774 43.6858C36.6721 44.0406 36.3762 44.3365 36.0213 44.5417L35.771 44.1089C35.501 44.265 35.1877 44.3545 34.852 44.3545C34.5163 44.3545 34.2031 44.265 33.9332 44.1089L33.6828 44.5416C33.328 44.3364 33.0321 44.0405 32.8268 43.6857L33.2596 43.4353C33.1035 43.1655 33.0139 42.8523 33.0139 42.5165V41.5681H32.5139V40.6197H33.0139V38.7229H32.5139V37.7744H33.0139V35.8776H32.5139V34.9292H33.0139V33.0323H32.5139V32.0839H33.0139V30.1871H32.5139V29.2387H33.0139V27.3418H32.5139V26.3934H33.0139V25.445C33.0139 25.1689 32.7901 24.945 32.5139 24.945H32.2218V25.445H32.1374H32.0139H31.9296V24.945H31.6374C31.3613 24.945 31.1374 25.1689 31.1374 25.445V26.3934H31.6374V27.3418H31.1374V29.2387H31.6374V30.1871H31.1374V32.0839H31.6374V33.0323H31.1374V34.9292H31.6374V35.8776H31.1374V37.7744H31.6374V38.7229H31.1374V40.6197H31.6374V41.5681H31.1374V42.5165C31.1374 42.8523 31.0479 43.1655 30.8917 43.4354L31.3245 43.6858C31.1191 44.0406 30.8232 44.3365 30.4683 44.5417L30.218 44.1089C29.9481 44.265 29.6347 44.3545 29.299 44.3545C28.9634 44.3545 28.6501 44.265 28.3802 44.1089L28.1298 44.5416C27.775 44.3364 27.4792 44.0405 27.2739 43.6857L27.7066 43.4353C27.5505 43.1655 27.461 42.8523 27.461 42.5165V41.4869H26.961V40.4573H27.461V38.398H26.961V37.3684H27.461V35.3092H26.961V34.2796H27.461V32.2203H26.961V31.1907H27.461V29.1314H26.961V28.1018H27.461V26.0426H26.961V25.013H27.461V23.9833V22.7894H26.961V21.5955H27.461V20.4015V19.3661H26.961V18.3306H27.461V16.2597H26.961V15.2242H27.0159L27.0679 15.2423C27.07 15.2362 27.0721 15.2302 27.0742 15.2242H27.461V14.1887C27.461 13.956 27.3004 13.754 27.0736 13.7016C26.8468 13.6492 26.6139 13.7602 26.5117 13.9693C26.3792 14.2406 26.2484 14.5541 26.1233 14.9141L26.461 15.0314V15.2242H26.5461C26.468 15.4604 26.3919 15.7181 26.3192 15.9988L25.8352 15.8735C25.6904 16.4329 25.5597 17.076 25.4519 17.8129L25.9466 17.8852C25.9025 18.1865 25.8623 18.5044 25.8266 18.8398L25.3294 18.7868C25.2659 19.3828 25.2165 20.0312 25.1847 20.7363L25.6842 20.7588C25.6703 21.0678 25.6598 21.3881 25.653 21.7201L25.1531 21.7098C25.1466 22.0243 25.1435 22.3488 25.144 22.6837M25.0732 27.4818L24.7978 27.0644C24.6549 27.1587 24.4862 27.218 24.3016 27.229C24.3013 27.229 24.301 27.229 24.3006 27.229L24.2803 27.23L24.2998 27.7296C24.2898 27.73 24.2798 27.7303 24.2698 27.7305L24.2596 27.2306L24.2398 27.2308C24.0633 27.2308 23.897 27.1853 23.7516 27.1049L23.5095 27.5423C23.2866 27.4189 23.0973 27.2406 22.9608 27.0246L23.3836 26.7576C23.2955 26.6181 23.2403 26.4549 23.2298 26.277L23.2298 26.2769C23.2058 25.8669 23.1858 25.4676 23.1697 25.0787L22.6701 25.0994C22.653 24.6854 22.6403 24.2829 22.6317 23.8916M25.0732 27.4818L22.6317 23.8916M25.144 22.6837C25.144 22.6838 25.144 22.6839 25.144 22.684L25.6436 22.6834H25.144C25.144 22.6835 25.144 22.6836 25.144 22.6837ZM38.4937 23.8327C38.4856 24.2038 38.4735 24.5867 38.4572 24.9816L38.9568 25.0022C38.9414 25.377 38.9222 25.7624 38.8991 26.1587L38.8991 26.1588C38.8883 26.3438 38.9274 26.5187 39.0046 26.672L38.5579 26.8967C38.6771 27.1337 38.8571 27.3359 39.0786 27.4819L39.3538 27.0645C39.4968 27.1587 39.6656 27.218 39.8503 27.229C39.8506 27.229 39.851 27.229 39.8513 27.229L39.8716 27.23L39.852 27.7296C39.862 27.73 39.872 27.7303 39.8819 27.7305L39.8921 27.2306L39.9119 27.2308C40.0884 27.2308 40.2547 27.1853 40.4 27.1048L40.6423 27.5422C40.8652 27.4188 41.0544 27.2404 41.1908 27.0243L40.768 26.7574C40.8561 26.6178 40.9113 26.4546 40.9217 26.2767C40.9455 25.8668 40.9653 25.4676 40.9812 25.0786L41.4808 25.0991C41.4978 24.6852 41.5104 24.2828 41.519 23.8914L41.0191 23.8805C41.0281 23.4692 41.0325 23.0705 41.0326 22.6839C41.0322 22.3698 41.029 22.0636 41.0231 21.7652L41.523 21.7554C41.5168 21.4381 41.5076 21.1293 41.4956 20.8287L40.996 20.8488C40.97 20.202 40.9307 19.5948 40.8792 19.0244L41.3772 18.9795C41.3486 18.6618 41.3162 18.3551 41.2803 18.0588L40.7839 18.119C40.7053 17.4703 40.6097 16.8747 40.4996 16.3272L40.9897 16.2286C40.9261 15.9125 40.8577 15.6114 40.7847 15.3243L40.3001 15.4474C40.1378 14.8091 39.9537 14.2465 39.7531 13.7487L40.2169 13.5618C40.0953 13.26 39.9673 12.9795 39.8338 12.7183L39.3886 12.9458C39.2484 12.6713 39.1024 12.4207 38.9521 12.1909C38.7846 11.9366 38.6097 11.7104 38.4317 11.5103L38.8052 11.1779C38.5852 10.9307 38.3588 10.7179 38.1319 10.537L37.8203 10.9281C37.5841 10.7399 37.3502 10.5926 37.1275 10.4815L37.1255 10.4805C37.0133 10.4239 36.9041 10.3762 36.7992 10.3361L36.9776 9.869C36.8423 9.81732 36.7123 9.77634 36.5893 9.74398L36.4621 10.2275C36.3382 10.1949 36.2228 10.1726 36.1183 10.1576C36.0891 10.1534 36.0604 10.1466 36.0324 10.1373C35.9992 10.1263 35.9656 10.1171 35.9317 10.1096L36.0389 9.62124C35.9884 9.61016 35.937 9.60164 35.8847 9.59592L35.8303 10.093C35.7969 10.0893 35.763 10.0874 35.7287 10.0874H34.511V9.5874H33.2933V10.0874H30.8579V9.5874H29.6402V10.0874H28.4225C28.3881 10.0874 28.3541 10.0893 28.3207 10.0929L28.2665 9.59588C28.2143 9.60157 28.1628 9.61006 28.1124 9.62112L28.2194 10.1095C28.1855 10.1169 28.152 10.1262 28.119 10.1371C28.091 10.1464 28.0622 10.1532 28.033 10.1574C27.9284 10.1724 27.813 10.1948 27.689 10.2274L27.5619 9.74381C27.4387 9.77618 27.3087 9.81719 27.1734 9.8689L27.3518 10.336C27.2468 10.3761 27.1376 10.4238 27.0253 10.4805L27.0222 10.4821L27.0222 10.4821C26.8319 10.5764 26.6356 10.6962 26.4372 10.8448L26.1374 10.4447C25.9408 10.592 25.7445 10.7629 25.5513 10.9594L25.9078 11.31C25.6072 11.6155 25.3102 11.9934 25.0316 12.4542L24.6037 12.1956C24.475 12.4085 24.3505 12.637 24.2316 12.8817L24.6812 13.1003C24.578 13.3128 24.4786 13.539 24.3841 13.7797L24.3837 13.7809C24.2695 14.0695 24.1606 14.3791 24.0581 14.7119L23.5803 14.5646C23.4845 14.8753 23.3944 15.2044 23.3107 15.5535L23.7969 15.6701C23.655 16.2617 23.5311 16.9152 23.4295 17.6389L22.9343 17.5693C22.8886 17.8949 22.8474 18.2337 22.8109 18.5867L23.3083 18.638C23.2438 19.2626 23.1944 19.9333 23.1622 20.6544L22.6627 20.632C22.6479 20.9633 22.6366 21.3049 22.6292 21.657L23.129 21.6676C23.1221 21.9965 23.1184 22.335 23.1182 22.6834C23.1182 22.6835 23.1182 22.6836 23.1182 22.6837M38.4937 23.8327L23.1182 22.6837M38.4937 23.8327L38.9936 23.8436C39.0024 23.4439 39.0066 23.0573 39.0066 22.6836L38.4937 23.8327ZM23.1182 22.6837C23.1182 23.0703 23.1225 23.4692 23.1316 23.8806L22.6317 23.8916M23.1182 22.6837L22.6317 23.8916" stroke="#78D3A7" stroke-linejoin="round" stroke-dasharray="2 1"/>
<path d="M31.9358 0.00270512C31.5598 0.0148936 31.1918 0.0771347 30.8401 0.184282L30.9859 0.662576C30.356 0.854458 29.7852 1.20966 29.3348 1.6899L28.9701 1.34787C28.7186 1.61604 28.5002 1.91867 28.3231 2.25062L28.7643 2.48593C28.6135 2.76866 28.4965 3.07596 28.4201 3.40411C28.3437 3.73226 28.3129 4.05964 28.3232 4.37991L27.8235 4.39611C27.8357 4.77212 27.8979 5.14011 28.0051 5.49179L28.4834 5.34607C28.6753 5.97588 29.0305 6.54674 29.5107 6.99712L29.1687 7.36183C29.4368 7.61333 29.7395 7.83174 30.0714 8.00879L30.3067 7.56762C30.5895 7.71843 30.8968 7.83543 31.2249 7.91185C31.5531 7.98827 31.8804 8.01906 32.2007 8.00868L32.2169 8.50842C32.5929 8.49623 32.9609 8.43399 33.3126 8.32684L33.1669 7.84855C33.7967 7.65666 34.3675 7.30146 34.8179 6.82122L35.1826 7.16325C35.4341 6.89509 35.6525 6.59245 35.8296 6.26051L35.3884 6.0252C35.5392 5.74246 35.6562 5.43516 35.7327 5.10701C35.8091 4.77886 35.8399 4.45148 35.8295 4.13121L36.3292 4.11502C36.317 3.739 36.2548 3.37101 36.1476 3.01933L35.6694 3.16505C35.4775 2.53524 35.1223 1.96438 34.642 1.514L34.9841 1.14929C34.7159 0.897795 34.4133 0.679385 34.0813 0.502331L33.846 0.943499C33.5633 0.792694 33.256 0.675687 32.9278 0.59927C32.5997 0.522852 32.2723 0.492061 31.952 0.502443L31.9358 0.00270512Z" stroke="#78D3A7" stroke-linejoin="round" stroke-dasharray="2 1"/>
</g>
<g clip-path="url(#clip2)">
<path d="M49.474 13.7594C49.7008 13.8119 49.8614 14.0138 49.8614 14.2466V20.4594V24.0412V42.5744C49.8614 43.5898 50.6845 44.4124 51.6994 44.4124C52.7147 44.4124 53.5378 43.5897 53.5378 42.5744V25.5029C53.5378 25.2267 53.7616 25.0029 54.0378 25.0029H54.9143C55.1905 25.0029 55.4143 25.2267 55.4143 25.5029V42.5744C55.4143 43.5898 56.2375 44.4124 57.2524 44.4124C58.2676 44.4124 59.0907 43.5897 59.0907 42.5744V24.0412V20.4594V14.2545C59.0907 14.0217 59.2515 13.8196 59.4784 13.7673C59.7054 13.715 59.9384 13.8263 60.0403 14.0357C60.1602 14.282 60.2801 14.562 60.3974 14.8856L60.3977 14.8863C60.9572 16.4371 61.4087 18.9235 61.407 22.7412L49.474 13.7594ZM49.474 13.7594C49.2472 13.707 49.0143 13.818 48.9121 14.0272M49.474 13.7594L48.9121 14.0272M48.9121 14.0272C48.2096 15.4654 47.5381 18.1236 47.5444 22.7416M48.9121 14.0272L47.5444 22.7416M61.2995 26.2166L61.2995 26.2166C61.2668 26.775 61.6929 27.2541 62.2514 27.2869C62.273 27.2881 62.2931 27.2887 62.3123 27.2887C62.8443 27.2887 63.2906 26.8728 63.3221 26.3347M61.2995 26.2166L45.5186 22.7412C45.5212 18.4914 46.0392 15.7222 46.7841 13.8387L46.7845 13.8376C47.5165 11.9728 48.5387 10.9781 49.4225 10.5399L49.4225 10.5399L49.4257 10.5384C49.8105 10.3442 50.1595 10.2546 50.4334 10.2152C50.4626 10.211 50.4913 10.2043 50.5194 10.195C50.6167 10.1628 50.7182 10.1453 50.8228 10.1453H58.1291C58.2336 10.1453 58.3351 10.1628 58.4328 10.1952C58.4608 10.2045 58.4895 10.2112 58.5187 10.2154C58.7924 10.2548 59.1415 10.3444 59.5259 10.5384L59.5279 10.5393C60.1141 10.8319 60.7759 11.3738 61.3525 12.2487C62.5176 14.03 63.4253 17.0743 63.433 22.7417C63.4326 23.8384 63.3978 25.0328 63.3221 26.3347M61.2995 26.2166C61.3734 24.9503 61.407 23.7949 61.407 22.7415L61.2995 26.2166ZM63.3221 26.3347L63.8212 26.3637L63.3221 26.3346C63.3221 26.3346 63.3221 26.3347 63.3221 26.3347ZM45.6302 26.3348L45.6302 26.3349C45.6617 26.8729 46.1081 27.2887 46.6402 27.2887C46.6595 27.2887 46.68 27.2881 46.7021 27.2868L46.7302 27.786L46.701 27.2869C47.2591 27.2542 47.6853 26.7751 47.6527 26.2163L45.6302 26.3348ZM45.6302 26.3348C45.5538 25.0324 45.5186 23.8381 45.5186 22.7415L45.6302 26.3348ZM47.5444 22.7416C47.5444 23.7947 47.5784 24.9501 47.6527 26.2163L47.5444 22.7416Z" stroke="#78D3A7" stroke-linejoin="round"/>
<path d="M55.3282 0.657131C57.3475 1.12737 58.6033 3.14556 58.133 5.16487C57.6628 7.18419 55.6446 8.43996 53.6253 7.96971C51.606 7.49947 50.3502 5.48128 50.8205 3.46197C51.2907 1.44266 53.3089 0.186887 55.3282 0.657131Z" stroke="#78D3A7" stroke-linejoin="round"/>
</g>
<defs>
<clipPath id="clip0">
<rect width="19.2007" height="44.97" fill="white"/>
</clipPath>
<clipPath id="clip1">
<rect width="19.2007" height="44.97" fill="white" transform="translate(22.3994)"/>
</clipPath>
<clipPath id="clip2">
<rect width="19.2007" height="44.97" fill="white" transform="translate(44.7998)"/>
</clipPath>
</defs>
</svg>
