<svg width="46" height="28" viewBox="0 0 46 28" fill="none" xmlns="http://www.w3.org/2000/svg">
<path d="M17.1136 16.1713C17.1136 19.8558 16.4186 22.655 15.0286 24.569C13.6386 26.4711 11.5905 27.4221 8.88429 27.4221C6.22729 27.4221 4.19148 26.489 2.77687 24.6229C1.36227 22.7447 0.636512 20.0173 0.599609 16.4404V11.7571C0.599609 8.08454 1.30076 5.30324 2.70307 3.41314C4.10538 1.52305 6.15348 0.578003 8.84739 0.578003C11.5044 0.578003 13.534 1.49314 14.9363 3.32342C16.3387 5.14174 17.0644 7.82735 17.1136 11.3802V16.1713ZM14.8994 11.4879C14.8994 8.49725 14.3951 6.23632 13.3864 4.70511C12.3901 3.17389 10.877 2.40828 8.84739 2.40828C6.85463 2.40828 5.35392 3.15595 4.34524 4.65127C3.33657 6.1466 2.81993 8.3537 2.79533 11.2726V16.4045C2.79533 19.3832 3.31197 21.6621 4.34524 23.2412C5.39082 24.8202 6.90384 25.6098 8.88429 25.6098C10.8524 25.6098 12.3409 24.8382 13.3495 23.295C14.3705 21.7518 14.8871 19.4909 14.8994 16.5122V11.4879Z" fill="#78D3A7"/>
<path d="M21.3574 5.96118C21.3574 4.40604 21.8495 3.12006 22.8335 2.10324C23.8299 1.07445 25.0908 0.560059 26.6161 0.560059C28.1414 0.560059 29.3961 1.07445 30.3802 2.10324C31.3765 3.12006 31.8747 4.44193 31.8747 6.06884V7.34286C31.8747 8.87408 31.3827 10.1541 30.3986 11.1829C29.4268 12.1997 28.1783 12.7081 26.653 12.7081C25.14 12.7081 23.8791 12.2057 22.8705 11.2008C21.8618 10.1959 21.3574 8.8681 21.3574 7.21725V5.96118ZM23.1472 7.34286C23.1472 8.45539 23.4609 9.37053 24.0882 10.0883C24.7279 10.806 25.5828 11.1649 26.653 11.1649C27.6986 11.1649 28.5289 10.806 29.1439 10.0883C29.7713 9.35856 30.0849 8.4195 30.0849 7.27109V5.96118C30.0849 4.84866 29.7651 3.93352 29.1255 3.21576C28.4858 2.48604 27.6494 2.12118 26.6161 2.12118C25.5951 2.12118 24.7586 2.48006 24.1067 3.19782C23.467 3.91557 23.1472 4.87258 23.1472 6.06884V7.34286ZM34.8823 20.6573C34.8823 19.1021 35.3744 17.8161 36.3584 16.7993C37.3548 15.7825 38.6095 15.2741 40.1225 15.2741C41.6355 15.2741 42.8902 15.7825 43.8866 16.7993C44.8953 17.8042 45.3996 19.132 45.3996 20.7829V22.0569C45.3996 23.612 44.9014 24.898 43.905 25.9148C42.921 26.9316 41.6724 27.4401 40.1594 27.4401C38.6464 27.4401 37.3856 26.9376 36.3769 25.9328C35.3805 24.9159 34.8823 23.5941 34.8823 21.9672V20.6573ZM36.6536 22.0569C36.6536 23.1814 36.9673 24.1025 37.5947 24.8202C38.2343 25.538 39.0892 25.8969 40.1594 25.8969C41.2173 25.8969 42.0538 25.538 42.6688 24.8202C43.2962 24.0905 43.6098 23.1395 43.6098 21.9672V20.6573C43.6098 19.5088 43.29 18.5877 42.6504 17.8939C42.023 17.1881 41.1804 16.8352 40.1225 16.8352C39.0892 16.8352 38.2528 17.1881 37.6131 17.8939C36.9735 18.5997 36.6536 19.5447 36.6536 20.729V22.0569ZM27.3541 24.892L25.9703 24.0307L39.0892 3.61053L40.4731 4.47183L27.3541 24.892Z" fill="#78D3A7"/>
</svg>
