<svg width="465" height="407" viewBox="0 0 465 407" fill="none" xmlns="http://www.w3.org/2000/svg">
<path d="M464.944 349.17C464.935 349.097 464.922 349.026 464.911 348.954C464.877 348.721 464.832 348.492 464.777 348.266C464.759 348.194 464.742 348.123 464.722 348.051C464.649 347.786 464.563 347.526 464.462 347.274C464.453 347.251 464.446 347.227 464.437 347.205C464.319 346.918 464.182 346.64 464.031 346.372C464.023 346.358 464.018 346.342 464.01 346.328L268.158 4.188C268.124 4.129 268.085 4.077 268.05 4.019C267.969 3.885 267.887 3.752 267.797 3.624C267.731 3.53 267.661 3.44 267.592 3.349C267.516 3.25 267.44 3.151 267.36 3.057C267.273 2.954 267.182 2.857 267.09 2.76C267.017 2.683 266.945 2.607 266.87 2.534C266.769 2.436 266.664 2.343 266.559 2.251C266.481 2.184 266.404 2.117 266.324 2.053C266.219 1.969 266.111 1.89 266.002 1.812C265.91 1.746 265.817 1.682 265.722 1.62C265.622 1.555 265.52 1.495 265.417 1.435C265.305 1.37 265.192 1.306 265.076 1.247C264.985 1.2 264.892 1.157 264.8 1.114C264.669 1.053 264.538 0.995001 264.403 0.942001C264.317 0.908001 264.229 0.877002 264.142 0.847002C264.001 0.797002 263.859 0.750002 263.714 0.709002C263.623 0.683002 263.531 0.661002 263.439 0.638002C263.299 0.604002 263.159 0.571003 263.016 0.544003C262.906 0.523003 262.795 0.509002 262.684 0.493002C262.559 0.476002 262.434 0.458002 262.306 0.447002C262.166 0.435002 262.026 0.430003 261.886 0.426003C261.807 0.424003 261.73 0.414001 261.65 0.414001H205.034C204.999 0.414001 204.965 0.420001 204.93 0.421001C204.672 0.425001 204.416 0.442002 204.16 0.472002C204.094 0.480002 204.029 0.486003 203.964 0.495003C203.371 0.581003 202.792 0.737002 202.236 0.961002C202.172 0.987002 202.109 1.015 202.046 1.043C201.819 1.141 201.598 1.251 201.382 1.371C201.335 1.397 201.287 1.421 201.241 1.448C200.725 1.75 200.243 2.117 199.806 2.544C199.757 2.592 199.71 2.642 199.662 2.691C199.498 2.86 199.343 3.037 199.194 3.223C199.145 3.284 199.094 3.344 199.047 3.407C198.87 3.643 198.702 3.888 198.55 4.149C198.547 4.154 198.543 4.159 198.54 4.164C198.539 4.166 198.539 4.167 198.538 4.169L1.005 346.3C-0.335 348.62 -0.335 351.479 1.005 353.8L29.311 402.834C29.32 402.85 29.332 402.864 29.342 402.88C29.5 403.149 29.672 403.411 29.864 403.661C29.865 403.662 29.865 403.662 29.866 403.663C30.048 403.899 30.248 404.122 30.46 404.337C30.504 404.382 30.549 404.425 30.594 404.468C30.772 404.64 30.96 404.804 31.157 404.96C31.204 404.998 31.25 405.037 31.298 405.073C31.539 405.254 31.788 405.426 32.056 405.581C32.321 405.734 32.592 405.862 32.866 405.979C32.887 405.988 32.907 406 32.928 406.009C33.859 406.397 34.834 406.586 35.8 406.586C35.815 406.586 35.83 406.583 35.845 406.583H429.192C431.872 406.583 434.347 405.153 435.687 402.833L463.996 353.802C464.006 353.784 464.013 353.764 464.024 353.746C464.175 353.479 464.313 353.205 464.431 352.919C464.436 352.906 464.44 352.892 464.446 352.879C464.552 352.619 464.64 352.351 464.717 352.077C464.738 352.004 464.755 351.931 464.774 351.857C464.829 351.636 464.873 351.412 464.907 351.184C464.919 351.106 464.933 351.029 464.943 350.951C464.976 350.672 464.997 350.39 464.999 350.103C464.999 350.089 465.001 350.075 465.001 350.061C465.001 350.058 465.001 350.055 465.001 350.052C465 349.753 464.978 349.46 464.944 349.17ZM35.807 384.084L16.16 350.05L205.032 22.913L361.266 293.52H321.97L211.527 102.229C211.513 102.205 211.497 102.184 211.483 102.161C211.402 102.024 211.314 101.892 211.224 101.76C211.172 101.684 211.123 101.605 211.068 101.532C210.983 101.416 210.89 101.306 210.798 101.194C210.729 101.111 210.663 101.026 210.591 100.947C210.512 100.859 210.425 100.777 210.341 100.692C210.247 100.598 210.155 100.502 210.057 100.414C209.986 100.35 209.911 100.291 209.837 100.23C209.717 100.13 209.598 100.03 209.473 99.938C209.405 99.888 209.333 99.843 209.263 99.795C209.127 99.702 208.99 99.61 208.848 99.527C208.825 99.513 208.805 99.497 208.781 99.484C208.721 99.449 208.659 99.423 208.598 99.39C208.466 99.319 208.335 99.249 208.199 99.186C208.092 99.136 207.985 99.092 207.877 99.048C207.764 99.002 207.652 98.956 207.537 98.915C207.409 98.869 207.279 98.83 207.15 98.791C207.051 98.762 206.953 98.733 206.854 98.708C206.713 98.673 206.572 98.643 206.431 98.616C206.336 98.598 206.24 98.58 206.144 98.566C206.004 98.545 205.864 98.529 205.723 98.516C205.619 98.506 205.515 98.498 205.41 98.493C205.28 98.486 205.15 98.484 205.021 98.484C204.903 98.484 204.785 98.486 204.667 98.492C204.55 98.498 204.435 98.507 204.319 98.518C204.19 98.53 204.061 98.545 203.933 98.564C203.825 98.58 203.719 98.599 203.612 98.62C203.481 98.645 203.35 98.673 203.22 98.705C203.111 98.732 203.003 98.764 202.895 98.796C202.774 98.832 202.654 98.869 202.535 98.911C202.411 98.955 202.29 99.004 202.169 99.054C202.069 99.095 201.97 99.136 201.871 99.182C201.728 99.248 201.588 99.322 201.449 99.398C201.394 99.428 201.337 99.452 201.283 99.483C201.262 99.495 201.243 99.51 201.222 99.522C201.074 99.609 200.93 99.705 200.787 99.803C200.723 99.847 200.657 99.889 200.594 99.935C200.464 100.03 200.34 100.133 200.217 100.237C200.148 100.295 200.076 100.351 200.009 100.411C199.909 100.502 199.814 100.6 199.718 100.697C199.636 100.779 199.552 100.86 199.475 100.945C199.402 101.026 199.334 101.112 199.265 101.197C199.174 101.307 199.082 101.416 198.998 101.531C198.944 101.605 198.894 101.684 198.842 101.76C198.753 101.892 198.664 102.023 198.583 102.16C198.569 102.183 198.553 102.204 198.539 102.228L35.807 384.084ZM304.649 293.521H162.031L233.34 170.011L304.649 293.521ZM424.861 391.584H48.797L205.032 120.978L224.68 155.01L114.239 346.3C113.581 347.441 113.234 348.737 113.234 350.053C113.234 354.196 116.591 357.553 120.734 357.553H170.37C174.513 357.553 177.87 354.196 177.87 350.053C177.87 345.91 174.513 342.553 170.37 342.553H133.723L153.372 308.521H317.632C317.637 308.521 317.642 308.522 317.647 308.522C317.652 308.522 317.657 308.521 317.662 308.521H369.927L389.575 342.553H200.37C196.227 342.553 192.87 345.91 192.87 350.053C192.87 354.196 196.227 357.553 200.37 357.553H402.557C402.562 357.553 402.567 357.554 402.572 357.554C402.577 357.554 402.582 357.553 402.587 357.553H444.509L424.861 391.584ZM406.896 342.553L218.022 15.413H257.3L444.564 342.553H406.896Z" fill="#78D3A7"/>
</svg>
