<svg width="30" height="30" viewBox="0 0 30 30" fill="none" xmlns="http://www.w3.org/2000/svg">
<path fill-rule="evenodd" clip-rule="evenodd" d="M29.9998 8C29.9998 3.58172 26.418 0 21.9998 0H7.99976C3.58148 0 -0.000244141 3.58172 -0.000244141 8V22C-0.000244141 26.4183 3.58148 30 7.99976 30H21.9998C26.418 30 29.9998 26.4183 29.9998 22V8ZM10.2287 12.4334C8.56309 13.0804 6.85171 13.7452 5.28681 14.5121C5.28675 14.5121 5.2867 14.5122 5.28665 14.5122C5.28663 14.5122 5.28659 14.5123 5.28656 14.5123C4.46951 15.0446 5.55562 15.421 6.57448 15.7742C6.73649 15.8304 6.89679 15.8859 7.04747 15.9414C7.17284 15.9757 7.30034 16.0118 7.42954 16.0485C8.56276 16.3697 9.82638 16.7279 10.9265 16.1891C12.7338 15.2654 14.4394 14.1975 16.1437 13.1304C16.702 12.7809 17.2602 12.4314 17.8217 12.0871C17.848 12.0721 17.8777 12.055 17.9102 12.0363C17.9794 11.9964 18.0611 11.9493 18.149 11.9004C18.9988 11.4287 18.7164 12.3503 17.9821 12.9871C17.3681 13.5195 16.737 14.027 16.1038 14.5362C15.4207 15.0855 14.7351 15.6367 14.0658 16.2236C13.6713 16.5087 13.2666 16.9891 13.2485 17.4527C13.23 17.9272 13.7329 18.209 14.1371 18.4583C15.4431 19.2637 16.7643 20.0543 18.0849 20.8445C18.582 21.1419 19.079 21.4393 19.5751 21.7375C20.4149 22.334 21.7273 21.8514 21.9121 20.9192C21.994 20.4918 22.0761 20.0645 22.1583 19.6371C22.6141 17.2658 23.0701 14.8937 23.4729 12.5147C23.5276 12.1419 23.5896 11.769 23.6517 11.3959C23.7615 10.7362 23.8713 10.0759 23.9409 9.41392C23.9924 8.92466 24.0339 8.30933 23.5862 8.10551C23.1337 7.89952 22.4187 8.03525 21.9539 8.17305C18.417 9.37046 14.9153 10.6566 11.4276 11.9655C11.0324 12.1212 10.6319 12.2768 10.2287 12.4334Z" fill="#96DDBB"/>
</svg>
