<svg width="368" height="368" viewBox="0 0 368 368" fill="none" xmlns="http://www.w3.org/2000/svg">
<g clip-path="url(#clip0)">
<path d="M318.17 162.85L190.17 2.85C187.138 -0.95 180.706 -0.95 177.674 2.85L49.6739 162.85C47.7539 165.25 47.3779 168.538 48.7059 171.314C50.0499 174.09 52.8579 175.85 55.9299 175.85H127.93V351.85C127.93 360.674 135.106 367.85 143.93 367.85H223.93C232.754 367.85 239.93 360.674 239.93 351.85V175.85H311.93C315.002 175.85 317.81 174.09 319.138 171.314C320.474 168.546 320.098 165.25 318.17 162.85ZM231.93 159.85C227.514 159.85 223.93 163.434 223.93 167.85V351.85H143.93V167.85C143.93 163.434 140.346 159.85 135.93 159.85H72.5779L183.93 20.658L295.282 159.85H231.93Z" fill="white"/>
</g>
<defs>
<clipPath id="clip0">
<rect width="367.85" height="367.85" fill="white"/>
</clipPath>
</defs>
</svg>
