<svg width="30" height="30" viewBox="0 0 30 30" fill="none" xmlns="http://www.w3.org/2000/svg">
<path d="M7.99976 0C3.58148 0 -0.000244141 3.58172 -0.000244141 8V22C-0.000244141 26.4183 3.58148 30 7.99976 30H21.9998C26.418 30 29.9998 26.4183 29.9998 22V8C29.9998 3.58172 26.418 0 21.9998 0H7.99976ZM24.2185 21.4062H22.031C21.2029 21.4062 20.9529 20.7343 19.4685 19.25C18.1716 18 17.6248 17.8437 17.2966 17.8437C16.8435 17.8437 16.7185 17.9687 16.7185 18.5937V20.5625C16.7185 21.0937 16.5466 21.4062 15.156 21.4062C13.8066 21.3155 12.498 20.9056 11.3381 20.2102C10.1781 19.5147 9.19994 18.5537 8.48413 17.4062C6.96289 15.5127 5.85593 13.3249 5.23071 10.9843C5.08456 10.4372 4.95335 9.66271 5.50926 9.55455C5.5872 9.53939 5.67722 9.53119 5.78104 9.53119H7.96851C8.53101 9.53119 8.73417 9.78121 8.95288 10.3594C10.0153 13.4843 11.8279 16.2031 12.5623 16.2031C12.8435 16.2031 12.9685 16.0781 12.9685 15.375V12.1562C12.8747 10.6875 12.0935 10.5624 12.0935 10.0312C12.1038 9.8911 12.1683 9.76048 12.2733 9.66712C12.3783 9.57375 12.5156 9.52499 12.656 9.53119H16.0935C16.5623 9.53119 16.7185 9.76557 16.7185 10.3281V14.6719C16.7185 15.1406 16.9216 15.2968 17.0623 15.2968C17.3435 15.2968 17.5622 15.1406 18.0778 14.625C19.1859 13.2738 20.0912 11.7684 20.7654 10.1562C20.8342 9.96223 20.9646 9.79611 21.1367 9.68324C21.3089 9.57038 21.5132 9.51697 21.7185 9.53119H23.906C24.5623 9.53119 24.7029 9.85932 24.5623 10.3281C23.7663 12.1105 22.7815 13.8025 21.6248 15.375C21.3904 15.7343 21.2967 15.9218 21.6248 16.3437C21.8435 16.6718 22.6092 17.3124 23.1248 17.9218C23.7211 18.5167 24.237 19.1858 24.6601 19.912C24.878 20.286 25.1712 20.7473 24.9419 21.1144C24.821 21.308 24.5688 21.4062 24.2185 21.4062Z" fill="#96DDBB"/>
</svg>
