<svg width="45" height="45" viewBox="0 0 45 45" fill="none" xmlns="http://www.w3.org/2000/svg">
<path d="M24.3635 24.9603C24.2122 25.0182 24.0501 25.0472 23.8772 25.0472C23.5314 25.0472 23.2396 24.9255 23.0018 24.6821C22.7749 24.4271 22.6614 24.1083 22.6614 23.7258C22.6614 23.3549 22.7749 23.0477 23.0018 22.8043C23.2396 22.5493 23.5314 22.4218 23.8772 22.4218C24.2339 22.4218 24.5256 22.5493 24.7526 22.8043C24.9795 23.0477 25.093 23.3549 25.093 23.7258C25.093 23.9228 25.0606 24.1025 24.9958 24.2648C24.9417 24.4271 24.8607 24.5662 24.7526 24.6821C24.6445 24.798 24.5148 24.8907 24.3635 24.9603Z" fill="#96DDBB"/>
<path d="M31.5773 31.8281C31.3936 31.9324 31.1882 31.9846 30.9613 31.9846C30.6155 31.9846 30.3237 31.8629 30.0859 31.6195C29.859 31.3761 29.7455 31.0689 29.7455 30.698C29.7455 30.5125 29.7779 30.3386 29.8428 30.1763C29.9076 30.0141 29.9887 29.8808 30.0859 29.7764C30.194 29.6605 30.3237 29.5678 30.475 29.4983C30.6263 29.4287 30.7884 29.3939 30.9613 29.3939C31.3179 29.3939 31.6043 29.5156 31.8205 29.7591C32.0474 30.0025 32.1609 30.3154 32.1609 30.698C32.1609 30.9414 32.1068 31.1616 31.9988 31.3587C31.9015 31.5557 31.761 31.7122 31.5773 31.8281Z" fill="#96DDBB"/>
<path d="M17.4423 30.7501C17.0101 31.492 16.4049 31.8629 15.6267 31.8629C14.8378 31.8629 14.2218 31.492 13.7787 30.7501C13.3464 30.0083 13.1303 28.9709 13.1303 27.6379C13.1303 26.7569 13.2276 26.0035 13.4221 25.3775C13.6166 24.74 13.903 24.259 14.2813 23.9344C14.6595 23.5983 15.108 23.4302 15.6267 23.4302C16.1347 23.4302 16.5724 23.5983 16.9398 23.9344C17.3181 24.259 17.6044 24.74 17.799 25.3775C18.0043 26.0035 18.107 26.7569 18.107 27.6379C18.107 28.9709 17.8854 30.0083 17.4423 30.7501Z" fill="#96DDBB"/>
<path fill-rule="evenodd" clip-rule="evenodd" d="M38 22.1657V34.987C38 36.7447 36.6672 38 35.2273 38H9.77273C8.33282 38 7 36.7447 7 34.987V22.1657C7 21.2833 7.35537 20.4643 7.94343 19.9028L20.6707 7.75016C21.7182 6.74995 23.2818 6.74995 24.3293 7.75016L37.0566 19.9028C37.6446 20.4643 38 21.2833 38 22.1657ZM21.9319 25.7774C22.4399 26.3106 23.0883 26.5772 23.8772 26.5772C24.6553 26.5772 25.293 26.3106 25.7901 25.7774C26.298 25.2442 26.552 24.5604 26.552 23.7258C26.552 22.9028 26.3034 22.2305 25.8063 21.7089C25.3092 21.1757 24.6661 20.9091 23.8772 20.9091C23.0883 20.9091 22.4399 21.1757 21.9319 21.7089C21.4348 22.2305 21.1862 22.9028 21.1862 23.7258C21.1862 24.5604 21.4348 25.2442 21.9319 25.7774ZM29.7941 21.2394L22.9046 33.4973H24.8012L31.6908 21.2394H29.7941ZM30.9613 33.5147C31.7394 33.5147 32.377 33.2538 32.8742 32.7322C33.3821 32.199 33.6361 31.5209 33.6361 30.698C33.6361 29.875 33.3821 29.2027 32.8742 28.6811C32.377 28.1479 31.7394 27.8813 30.9613 27.8813C30.1832 27.8813 29.5402 28.1479 29.0322 28.6811C28.5351 29.2027 28.2865 29.875 28.2865 30.698C28.2865 31.5209 28.5351 32.199 29.0322 32.7322C29.5402 33.2538 30.1832 33.5147 30.9613 33.5147ZM12.5143 32.0194C13.2816 33.0974 14.3191 33.6364 15.6267 33.6364C16.9236 33.6364 17.9557 33.0974 18.723 32.0194C19.4903 30.9414 19.8739 29.4809 19.8739 27.6379C19.8739 25.7948 19.4903 24.3401 18.723 23.2737C17.9665 22.1957 16.9344 21.6567 15.6267 21.6567C14.3083 21.6567 13.2654 22.1957 12.4981 23.2737C11.7416 24.3401 11.3633 25.7948 11.3633 27.6379C11.3633 29.4809 11.747 30.9414 12.5143 32.0194Z" fill="#96DDBB"/>
<path fill-rule="evenodd" clip-rule="evenodd" d="M0 8C0 3.58172 3.58172 0 8 0H37C41.4183 0 45 3.58172 45 8V37C45 41.4183 41.4183 45 37 45H8C3.58172 45 0 41.4183 0 37V8ZM6.56224 18.4564C5.56725 19.4064 5 20.7533 5 22.1657V34.987C5 37.7556 7.13682 40 9.77273 40H35.2273C37.8632 40 40 37.7556 40 34.987V22.1657C40 20.7533 39.4328 19.4064 38.4378 18.4564L25.7105 6.30367C23.8901 4.56544 21.1099 4.56544 19.2895 6.30368L6.56224 18.4564Z" fill="#96DDBB"/>
</svg>
